<svg xmlns="http://www.w3.org/2000/svg" xmlns:xlink="http://www.w3.org/1999/xlink" viewBox="0 0 792.92 886.19">
  <defs>
    <linearGradient id="linear-gradient" x1="405.86" y1="372.11" x2="384.58" y2="408.96" gradientTransform="matrix(-0.4, 0.96, -1.45, -0.26, 1063.12, 101.97)" gradientUnits="userSpaceOnUse">
      <stop offset="0.75" stop-color="blue"/>
      <stop offset="0.8" stop-color="#df0020"/>
      <stop offset="1" stop-color="red"/>
    </linearGradient>
    <linearGradient id="linear-gradient-2" x1="576.64" y1="501.38" x2="618.95" y2="501.38" gradientTransform="matrix(2.01, 0.79, -2.61, 0.61, 710.02, -286.8)" gradientUnits="userSpaceOnUse">
      <stop offset="0.31" stop-color="blue"/>
      <stop offset="0.44" stop-color="blue"/>
      <stop offset="0.74" stop-color="#e6e619"/>
      <stop offset="1" stop-color="#ff0"/>
    </linearGradient>
    <linearGradient id="linear-gradient-3" x1="224.63" y1="543.17" x2="271.01" y2="543.17" gradientTransform="matrix(0.6, 0.87, -1.04, 0.5, 659.52, 62.73)" gradientUnits="userSpaceOnUse">
      <stop offset="0.02"/>
      <stop offset="0.18" stop-color="#000013"/>
      <stop offset="0.45" stop-color="blue"/>
      <stop offset="0.96" stop-color="blue"/>
    </linearGradient>
  </defs>
  <title>dnevnik suza</title>
  <g id="OSTALO2">
    <g id="OSTALO22">
      <g id="OSTALO">
        <path d="M169.12,716.72h.5l7.46,13.58h-1.84l-5.87-10.82L163.5,730.3h-1.84Z" transform="translate(-21.77 -21.7)" fill="#99c0e6"/>
      </g>
      <g id="OSTALO-2" data-name="OSTALO">
        <path d="M95.35,716.72l5.87,10.82,5.87-10.82h1.84l-7.46,13.58H101l-7.46-13.58Z" transform="translate(-21.77 -21.7)" fill="#99c0e6"/>
      </g>
      <g id="OSTALO-3" data-name="OSTALO">
        <circle cx="263.52" cy="744.85" r="7.88" fill="#f47e20"/>
      </g>
      <g id="OSTALO-4" data-name="OSTALO">
        <path d="M101.76,774.43a8.38,8.38,0,1,1,8.38-8.38A8.39,8.39,0,0,1,101.76,774.43Zm0-15.76a7.38,7.38,0,1,0,7.38,7.38A7.39,7.39,0,0,0,101.76,758.67Z" transform="translate(-21.77 -21.7)" fill="#f47e20"/>
      </g>
      <g id="OSTALO-5" data-name="OSTALO">
        <path d="M135.32,686.82a8.88,8.88,0,1,1,8.88-8.88A8.89,8.89,0,0,1,135.32,686.82Zm0-15.76a6.88,6.88,0,1,0,6.88,6.88A6.89,6.89,0,0,0,135.32,671.06Z" transform="translate(-21.77 -21.7)" fill="#e6e7e8"/>
      </g>
      <g id="OSTALO-6" data-name="OSTALO">
        <path d="M170.22,774.47a8.38,8.38,0,1,1,8.38-8.38A8.39,8.39,0,0,1,170.22,774.47Zm0-15.76a7.38,7.38,0,1,0,7.38,7.38A7.39,7.39,0,0,0,170.22,758.71Z" transform="translate(-21.77 -21.7)" fill="#f47e20"/>
        <circle cx="148.45" cy="744.39" r="1.91" fill="#f47e20"/>
      </g>
      <g id="OSTALO-7" data-name="OSTALO">
        <circle cx="205.2" cy="744.85" r="7.88" fill="#f47e20"/>
        <circle cx="205.2" cy="744.85" r="2.18" fill="#fff"/>
      </g>
      <g id="OSTALO-8" data-name="OSTALO">
        <rect x="71.67" y="777.42" width="2.56" height="19.51" fill="red"/>
      </g>
      <g id="OSTALO-9" data-name="OSTALO">
        <rect x="71.65" y="821.52" width="2.56" height="19.51" fill="red"/>
      </g>
      <g id="OSTALO-10" data-name="OSTALO">
        <rect x="82.88" y="821.52" width="5.47" height="19.51" fill="red"/>
      </g>
      <g id="OSTALO-11" data-name="OSTALO">
        <rect x="94.38" y="821.52" width="11.86" height="19.51" fill="red"/>
      </g>
      <g id="OSTALO-12" data-name="OSTALO">
        <rect x="112.68" y="821.52" width="25.7" height="19.51" fill="red"/>
      </g>
      <g id="OSTALO-13" data-name="OSTALO">
        <rect x="145.85" y="777.42" width="2.56" height="19.51" fill="blue"/>
      </g>
      <g id="OSTALO-14" data-name="OSTALO">
        <rect x="232.8" y="777.42" width="2.56" height="19.51" fill="#ff0"/>
      </g>
      <g id="OSTALO-15" data-name="OSTALO">
        <rect x="318.48" y="777.42" width="2.56" height="19.51"/>
      </g>
      <g id="OSTALO-16" data-name="OSTALO">
        <rect x="391.23" y="777.42" width="2.56" height="19.51" fill="#7f469a"/>
      </g>
      <g id="OSTALO-17" data-name="OSTALO">
        <rect x="432.81" y="777.42" width="2.56" height="19.51" fill="#e25dc6"/>
      </g>
    </g>
  </g>
  <g id="KRUGOVI">
    <g id="KRUGOVI11">
      <circle id="KRUG" cx="419.22" cy="68.4" r="43.19" transform="translate(-26.27 76.44) rotate(-13.28)" fill="none" stroke="#e6e7e8" stroke-miterlimit="10" stroke-width="7"/>
      <circle id="KRUG-2" data-name="KRUG" cx="528.87" cy="68.4" r="43.19" transform="translate(84.77 372.3) rotate(-45)" fill="none" stroke="#e6e7e8" stroke-miterlimit="10" stroke-width="7"/>
      <circle id="KRUG-3" data-name="KRUG" cx="638.53" cy="68.4" r="43.19" transform="translate(-20.4 126.83) rotate(-13.28)" fill="none" stroke="#e6e7e8" stroke-miterlimit="10" stroke-width="7"/>
      <circle id="KRUG-4" data-name="KRUG" cx="748.18" cy="68.4" r="43.19" transform="translate(149.01 527.37) rotate(-45)" fill="none" stroke="#e6e7e8" stroke-miterlimit="10" stroke-width="7"/>
      <circle id="KRUG-5" data-name="KRUG" cx="90.25" cy="182.71" r="43.19" transform="translate(-124.53 95.63) rotate(-45)" fill="none" stroke="#e6e7e8" stroke-miterlimit="10" stroke-width="7"/>
      <circle id="KRUG-6" data-name="KRUG" cx="199.91" cy="182.71" r="43.19" transform="translate(-92.41 173.17) rotate(-45)" fill="none" stroke="#e6e7e8" stroke-miterlimit="10" stroke-width="7"/>
      <circle id="KRUG-7" data-name="KRUG" cx="309.56" cy="182.71" r="43.19" transform="translate(-55.46 54.31) rotate(-13.28)" fill="none" stroke="#e6e7e8" stroke-miterlimit="10" stroke-width="7"/>
      <circle id="KRUG-8" data-name="KRUG" cx="419.22" cy="182.71" r="43.19" transform="translate(-28.18 328.24) rotate(-45)" fill="none" stroke="#e6e7e8" stroke-miterlimit="10" stroke-width="7"/>
      <circle id="KRUG-9" data-name="KRUG" cx="528.87" cy="182.71" r="43.19" transform="translate(-49.6 104.69) rotate(-13.28)" fill="none" stroke="#e6e7e8" stroke-miterlimit="10" stroke-width="7"/>
      <circle id="KRUG-10" data-name="KRUG" cx="638.53" cy="182.71" r="43.19" transform="translate(36.06 483.32) rotate(-45)" fill="none" stroke="#e6e7e8" stroke-miterlimit="10" stroke-width="7"/>
      <circle id="KRUG-11" data-name="KRUG" cx="748.18" cy="182.71" r="43.19" transform="translate(-43.73 155.08) rotate(-13.28)" fill="none" stroke="#e6e7e8" stroke-miterlimit="10" stroke-width="7"/>
      <circle id="KRUG-12" data-name="KRUG" cx="90.25" cy="297.02" r="43.19" transform="translate(-87.59 6.98) rotate(-13.28)" fill="none" stroke="#e6e7e8" stroke-miterlimit="10" stroke-width="7"/>
      <circle id="KRUG-13" data-name="KRUG" cx="199.91" cy="297.02" r="43.19" transform="translate(-84.66 32.17) rotate(-13.28)" fill="none" stroke="#e6e7e8" stroke-miterlimit="10" stroke-width="7"/>
      <circle id="KRUG-14" data-name="KRUG" cx="309.56" cy="297.02" r="43.19" transform="translate(-141.13 284.18) rotate(-45)" fill="none" stroke="#e6e7e8" stroke-miterlimit="10" stroke-width="7"/>
      <circle id="KRUG-15" data-name="KRUG" cx="419.22" cy="297.02" r="43.19" transform="translate(-78.79 82.56) rotate(-13.28)" fill="none" stroke="#e6e7e8" stroke-miterlimit="10" stroke-width="7"/>
      <circle id="KRUG-16" data-name="KRUG" cx="528.87" cy="297.02" r="43.19" transform="translate(-76.89 439.26) rotate(-45)" fill="none" stroke="#e6e7e8" stroke-miterlimit="10" stroke-width="7"/>
      <circle id="KRUG-17" data-name="KRUG" cx="638.53" cy="297.02" r="43.19" transform="translate(-72.93 132.94) rotate(-13.28)" fill="none" stroke="#e6e7e8" stroke-miterlimit="10" stroke-width="7"/>
      <circle id="KRUG-18" data-name="KRUG" cx="748.18" cy="297.02" r="43.19" transform="translate(-12.66 594.33) rotate(-45)" fill="none" stroke="#e6e7e8" stroke-miterlimit="10" stroke-width="7"/>
      <circle id="KRUG-19" data-name="KRUG" cx="90.25" cy="411.33" r="43.19" transform="translate(-286.19 162.59) rotate(-45)" fill="none" stroke="#e6e7e8" stroke-miterlimit="10" stroke-width="7"/>
      <circle id="KRUG-20" data-name="KRUG" cx="199.91" cy="411.33" r="43.19" transform="translate(-254.07 240.13) rotate(-45)" fill="none" stroke="#e6e7e8" stroke-miterlimit="10" stroke-width="7"/>
      <circle id="KRUG-21" data-name="KRUG" cx="309.56" cy="411.33" r="43.19" transform="translate(-107.99 60.42) rotate(-13.28)" fill="none" stroke="#e6e7e8" stroke-miterlimit="10" stroke-width="7"/>
      <circle id="KRUG-22" data-name="KRUG" cx="419.22" cy="411.33" r="43.19" transform="translate(-189.84 395.2) rotate(-45)" fill="none" stroke="#e6e7e8" stroke-miterlimit="10" stroke-width="7"/>
      <circle id="KRUG-23" data-name="KRUG" cx="528.87" cy="411.33" r="43.19" transform="translate(-102.13 110.81) rotate(-13.28)" fill="none" stroke="#e6e7e8" stroke-miterlimit="10" stroke-width="7"/>
      <circle id="KRUG-24" data-name="KRUG" cx="638.53" cy="411.33" r="43.19" transform="translate(-125.61 550.28) rotate(-45)" fill="none" stroke="#e6e7e8" stroke-miterlimit="10" stroke-width="7"/>
      <circle id="KRUG-25" data-name="KRUG" cx="748.18" cy="411.33" r="43.19" transform="translate(-96.26 161.2) rotate(-13.28)" fill="none" stroke="#e6e7e8" stroke-miterlimit="10" stroke-width="7"/>
      <circle id="KRUG-26" data-name="KRUG" cx="90.25" cy="525.65" r="43.19" transform="translate(-140.12 13.09) rotate(-13.28)" fill="none" stroke="#e6e7e8" stroke-miterlimit="10" stroke-width="7"/>
      <circle id="KRUG-27" data-name="KRUG" cx="199.91" cy="525.65" r="43.19" transform="translate(-137.19 38.29) rotate(-13.28)" fill="none" stroke="#e6e7e8" stroke-miterlimit="10" stroke-width="7"/>
      <circle id="KRUG-28" data-name="KRUG" cx="309.56" cy="525.65" r="43.19" transform="translate(-302.79 351.15) rotate(-45)" fill="none" stroke="#e6e7e8" stroke-miterlimit="10" stroke-width="7"/>
      <circle id="KRUG-29" data-name="KRUG" cx="419.22" cy="525.65" r="43.19" transform="translate(-131.32 88.67) rotate(-13.28)" fill="none" stroke="#e6e7e8" stroke-miterlimit="10" stroke-width="7"/>
      <circle id="KRUG-30" data-name="KRUG" cx="528.87" cy="525.65" r="43.19" transform="translate(-238.55 506.22) rotate(-45)" fill="none" stroke="#e6e7e8" stroke-miterlimit="10" stroke-width="7"/>
      <circle id="KRUG-31" data-name="KRUG" cx="638.53" cy="525.65" r="43.19" transform="translate(-125.46 139.06) rotate(-13.28)" fill="none" stroke="#e6e7e8" stroke-miterlimit="10" stroke-width="7"/>
    </g>
  </g>
  <g id="PODACI">
    <g id="PODACI11">
      <path id="PODACI-2" data-name="PODACI" d="M322.51,324.29l.74-.29,19.23,15.67-2.72,1.11-15.22-12.54-2.22,19.59-2.73,1.11Z" transform="translate(-21.77 -21.7)" fill="#99c0e6"/>
      <g id="PODACI-3" data-name="PODACI">
        <path id="PODACI-4" data-name="PODACI" d="M202.89,327.18l.73-.3,19.24,15.68-2.73,1.1-15.22-12.54-2.21,19.6-2.73,1.1Z" transform="translate(-21.77 -21.7)" fill="#99c0e6"/>
        <path id="PODACI-5" data-name="PODACI" d="M431.87,207.48l.74-.29,19.24,15.68-2.73,1.1L433.9,211.43,431.68,231l-2.73,1.1Z" transform="translate(-21.77 -21.7)" fill="#99c0e6"/>
        <path id="PODACI-6" data-name="PODACI" d="M538.71,324.29l.73-.29,19.24,15.67L556,340.78l-15.22-12.54-2.21,19.59-2.73,1.11Z" transform="translate(-21.77 -21.7)" fill="#99c0e6"/>
        <circle id="PODACI-7" data-name="PODACI" cx="390.26" cy="152.23" r="10.31" fill="none" stroke="#ff7f00" stroke-miterlimit="10"/>
        <g id="PODACI-8" data-name="PODACI">
          <circle id="PODACI-9" data-name="PODACI" cx="161.27" cy="265.2" r="10.12" fill="none" stroke="#f47e20" stroke-miterlimit="10"/>
          <circle id="PODACI-10" data-name="PODACI" cx="161.27" cy="265.2" r="2.45" fill="#f47e20"/>
        </g>
        <g id="PODACI-11" data-name="PODACI">
          <circle id="PODACI-12" data-name="PODACI" cx="276.85" cy="272.85" r="10.12" fill="none" stroke="#f47e20" stroke-miterlimit="10"/>
          <circle id="PODACI-13" data-name="PODACI" cx="276.85" cy="272.85" r="2.45" fill="#f47e20"/>
        </g>
        <g id="PODACI-14" data-name="PODACI">
          <circle id="PODACI-15" data-name="PODACI" cx="509.33" cy="257.54" r="10.12" fill="none" stroke="#f47e20" stroke-miterlimit="10"/>
          <circle id="PODACI-16" data-name="PODACI" cx="509.33" cy="257.54" r="2.45" fill="#f47e20"/>
        </g>
        <rect id="PODACI-17" data-name="PODACI" x="231.21" y="248.71" width="6.36" height="48.53" transform="translate(11.5 549.61) rotate(-105.36)" fill="red"/>
        <rect id="PODACI-18" data-name="PODACI" x="347.97" y="254.98" width="6.36" height="48.53" transform="translate(153.16 670.13) rotate(-105.36)" fill="blue"/>
        <rect id="PODACI-19" data-name="PODACI" x="509.22" y="311.84" width="6.36" height="48.53" transform="translate(185.34 -216.93) rotate(26.86)" fill="red"/>
        <rect id="PODACI-20" data-name="PODACI" x="379" y="181.22" width="6.36" height="48.53" transform="translate(263.53 606.75) rotate(-105.36)" fill="#ec1e24"/>
        <g id="PODACI-21" data-name="PODACI">
          <path d="M752.19,213.85l14.61,13.24,3.14-19.47,2.77-1-4.08,24.48-.75.26-18.47-16.57Z" transform="translate(-21.77 -21.7)" fill="#99c0e6"/>
          <g>
            <circle cx="729.94" cy="165.52" r="10.82" fill="#f47e20"/>
            <circle cx="729.94" cy="165.52" r="2.99" fill="#fff"/>
          </g>
          <rect x="689.57" y="123.77" width="51.15" height="56.76" transform="translate(1388.79 -95.35) rotate(150)" fill="#7f469a"/>
          <g>
            <path d="M316.75,441l.73-.3,19.24,15.68-2.73,1.1L318.77,445l-2.21,19.6-2.73,1.1Z" transform="translate(-21.77 -21.7)" fill="#99c0e6"/>
            <g>
              <circle cx="275.59" cy="384.82" r="10.82" fill="#f47e20"/>
              <circle cx="275.59" cy="384.82" r="2.99" fill="#fff"/>
            </g>
            <rect x="328.37" y="355.34" width="17.24" height="48.53" transform="translate(310.18 865.47) rotate(-137.83)" fill="url(#linear-gradient)"/>
            <g>
              <path d="M202.89,557.06l.73-.3,19.24,15.68-2.73,1.1L204.91,561l-2.21,19.6L200,581.7Z" transform="translate(-21.77 -21.7)" fill="#99c0e6"/>
              <path d="M649.68,552.73l.73-.29,19.24,15.67-2.73,1.11L651.7,556.68l-2.21,19.59-2.73,1.11Z" transform="translate(-21.77 -21.7)" fill="#99c0e6"/>
              <path d="M773.69,427.6l.56-.57,23.85,6.88L796,436l-18.92-5.57,5.65,18.89-2.08,2.09Z" transform="translate(-21.77 -21.7)" fill="#99c0e6"/>
              <path d="M88.1,555.68l.73-.3,19.24,15.68-2.73,1.11L90.12,559.63l-2.21,19.59-2.73,1.11Z" transform="translate(-21.77 -21.7)" fill="#99c0e6"/>
              <path d="M412.82,559.77,427.43,573l3.14-19.47,2.78-1-4.08,24.48-.75.27L410,560.74Z" transform="translate(-21.77 -21.7)" fill="#99c0e6"/>
              <circle cx="407.03" cy="491.22" r="10.31" fill="none" stroke="#ff7f00" stroke-miterlimit="10"/>
              <circle cx="171.41" cy="501.47" r="10.31" fill="none" stroke="#ff7f00" stroke-miterlimit="10"/>
              <circle cx="620.3" cy="496.81" r="10.31" fill="none" stroke="#ff7f00" stroke-miterlimit="10"/>
              <circle cx="721.47" cy="374.32" r="10.31" fill="#ff7f00"/>
              <g>
                <circle cx="65.99" cy="483.76" r="10.12" fill="none" stroke="#f47e20" stroke-miterlimit="10"/>
                <circle cx="65.99" cy="483.76" r="2.45" fill="#f47e20"/>
              </g>
              <rect x="123.66" y="475.41" width="6.36" height="48.53" transform="translate(-343.14 732.66) rotate(-105.36)" fill="blue"/>
              <rect x="43.88" y="500.67" width="6.36" height="48.53" transform="translate(-468.41 687.68) rotate(-105.36)" fill="blue"/>
              <rect x="704.29" y="374.4" width="6.36" height="48.53" transform="translate(-62 693.79) rotate(-52.37)" fill="blue"/>
              <rect x="593.96" y="468.49" width="20.96" height="48.53" transform="translate(-176.64 648.84) rotate(-52.37)" fill="url(#linear-gradient-2)"/>
              <rect x="378.85" y="483.33" width="6.36" height="48.53" transform="translate(-274.99 478.49) rotate(-52.37)"/>
              <rect x="787.05" y="376.07" width="6.36" height="48.53" transform="translate(495.02 1221.22) rotate(-98.89)" fill="#ff0"/>
              <rect x="757.35" y="430.26" width="6.36" height="48.53" transform="translate(-85.58 757.56) rotate(-52.37)" fill="red"/>
              <rect x="239.28" y="524.67" width="10.41" height="48.53" transform="translate(-374.91 464.5) rotate(-60)" fill="url(#linear-gradient-3)"/>
            </g>
          </g>
        </g>
      </g>
      <circle id="SIVI" cx="397.09" cy="46.65" r="36.28" fill="#f8faf6"/>
      <circle id="SIVI-2" data-name="SIVI" cx="506.7" cy="46.58" r="36.28" fill="#f8faf6"/>
      <circle id="SIVI-3" data-name="SIVI" cx="616.44" cy="46.18" r="36.28" fill="#f8faf6"/>
      <circle id="SIVI-4" data-name="SIVI" cx="725.77" cy="46.64" r="36.28" fill="#f8faf6"/>
      <circle id="SIVI-5" data-name="SIVI" cx="69.05" cy="160.27" r="36.28" fill="#f8faf6"/>
      <circle id="SIVI-6" data-name="SIVI" cx="177.29" cy="161.27" r="36.28" fill="#f8faf6"/>
      <circle id="SIVI-7" data-name="SIVI" cx="287.01" cy="161.92" r="36.28" fill="#f8faf6"/>
      <circle id="SIVI-8" data-name="SIVI" cx="506.26" cy="160.84" r="36.28" fill="#f8faf6"/>
      <circle id="SIVI-9" data-name="SIVI" cx="616.25" cy="160.43" r="36.28" fill="#f8faf6"/>
      <circle id="SIVI-10" data-name="SIVI" cx="68.19" cy="276.02" r="36.28" fill="#f8faf6"/>
      <circle id="SIVI-11" data-name="SIVI" cx="397.53" cy="275.12" r="36.28" fill="#f8faf6"/>
      <circle id="SIVI-12" data-name="SIVI" cx="616.42" cy="276.03" r="36.28" fill="#f8faf6"/>
      <circle id="SIVI-13" data-name="SIVI" cx="727.23" cy="275.91" r="36.28" fill="#f8faf6"/>
      <circle id="SIVI-14" data-name="SIVI" cx="67.19" cy="389.76" r="36.28" fill="#f8faf6"/>
      <circle id="SIVI-15" data-name="SIVI" cx="178.54" cy="389.81" r="36.28" fill="#f8faf6"/>
      <circle id="SIVI-16" data-name="SIVI" cx="397.28" cy="389.76" r="36.28" fill="#f8faf6"/>
      <circle id="SIVI-17" data-name="SIVI" cx="507.53" cy="391" r="36.28" fill="#f8faf6"/>
      <circle id="SIVI-18" data-name="SIVI" cx="617.06" cy="389.9" r="36.28" fill="#f8faf6"/>
      <circle id="SIVI-19" data-name="SIVI" cx="288.48" cy="503.51" r="36.28" fill="#f8faf6"/>
      <circle id="SIVI-20" data-name="SIVI" cx="506.56" cy="503.78" r="36.28" fill="#f8faf6"/>
    </g>
  </g>
  <g id="TEKSTOVI">
    <g id="TEKSTOVI11">
      <path d="M24.79,894.48h-3v11.45h3c4,0,5.83-2.51,5.83-5.68v-.15C30.59,896.92,28.73,894.48,24.79,894.48Zm4.36,5.75c0,2.8-1.48,4.56-4.42,4.56H23.16V895.6h1.55c3.16,0,4.44,1.86,4.44,4.5Z" transform="translate(-21.77 -21.7)"/>
      <polygon points="18.52 882.24 12.95 872.78 11.14 872.78 11.14 884.22 12.46 884.22 12.46 874.41 18.24 884.22 19.84 884.22 19.84 872.78 18.52 872.78 18.52 882.24"/>
      <polygon points="24.11 878.94 28.37 878.94 28.37 877.8 24.11 877.8 24.11 873.91 29.39 873.91 29.39 872.78 22.72 872.78 22.72 884.22 29.68 884.22 29.68 883.09 24.11 883.09 24.11 878.94"/>
      <polygon points="35.6 882.88 32.19 872.78 30.82 872.78 34.7 884.22 36.37 884.22 40.32 872.78 39.01 872.78 35.6 882.88"/>
      <polygon points="49.62 882.24 44.05 872.78 42.24 872.78 42.24 884.22 43.57 884.22 43.57 874.41 49.35 884.22 50.95 884.22 50.95 872.78 49.62 872.78 49.62 882.24"/>
      <rect x="53.9" y="872.78" width="1.39" height="11.44"/>
      <polygon points="66.18 872.76 64.63 872.76 59.65 878.28 59.65 872.78 58.26 872.78 58.26 884.22 59.65 884.22 59.65 878.64 64.75 884.22 66.44 884.22 61.09 878.33 66.18 872.76"/>
      <path d="M97.88,899.37c-2.34-.36-2.75-.93-2.75-2s.81-1.86,2.38-1.86,2.42.59,2.69,2h1.25c-.22-2-1.65-3.15-3.94-3.15s-3.68,1.34-3.68,3.1c0,2,1.42,2.79,3.83,3.16,2.17.35,2.76.89,2.76,2.19a2.32,2.32,0,0,1-2.6,2.16c-2.31,0-2.85-1.15-3-2.51H93.45c.2,1.95,1.31,3.63,4.37,3.63,2.27,0,4-1.45,4-3.38C101.77,900.53,100.42,899.77,97.88,899.37Z" transform="translate(-21.77 -21.7)"/>
      <path d="M111,901.38c0,2.8-1.09,3.54-2.91,3.54s-2.75-.93-2.75-3.33v-7.11H104v7.27c0,2.79,1.49,4.32,4.12,4.32,2.94,0,4.34-1.71,4.34-4.5v-7.09H111Z" transform="translate(-21.77 -21.7)"/>
      <polygon points="92.86 873.91 98.77 873.91 92.29 884 92.29 884.22 100.59 884.22 100.59 883.04 94.38 883.04 100.69 872.99 100.69 872.78 92.86 872.78 92.86 873.91"/>
      <path d="M127.64,894.48l-3.94,11.45H125l1.11-3.3h4.72l1.12,3.3h1.38l-3.88-11.45Zm-1.14,7,2-5.89,2,5.89Z" transform="translate(-21.77 -21.7)"/>
      <polygon points="112.88 885.74 113.74 886.19 115.71 882.85 114.42 882.24 112.88 885.74"/>
      <path d="M147.29,894.48h-3v11.45h3c4,0,5.83-2.51,5.83-5.68v-.15C153.08,896.92,151.22,894.48,147.29,894.48Zm4.35,5.75c0,2.8-1.47,4.56-4.42,4.56h-1.57V895.6h1.56c3.15,0,4.43,1.86,4.43,4.5Z" transform="translate(-21.77 -21.7)"/>
      <polygon points="135.02 878.94 139.28 878.94 139.28 877.8 135.02 877.8 135.02 873.91 140.31 873.91 140.31 872.78 133.63 872.78 133.63 884.22 140.59 884.22 140.59 883.09 135.02 883.09 135.02 878.94"/>
      <path d="M169.11,904.94c-2.46,0-3.94-1.77-3.94-4.68v-.13c0-2.88,1.59-4.72,4-4.72a2.89,2.89,0,0,1,3.25,2.64h1.37c-.24-2.48-2.25-3.74-4.64-3.74-3.1,0-5.38,2.45-5.38,5.84v.13c0,3.52,2,5.79,5.35,5.79,2.56,0,4.39-1.29,4.79-3.94h-1.3A3.17,3.17,0,0,1,169.11,904.94Z" transform="translate(-21.77 -21.7)"/>
      <polygon points="155.6 878.94 159.86 878.94 159.86 877.8 155.6 877.8 155.6 873.91 160.88 873.91 160.88 872.78 154.21 872.78 154.21 884.22 161.17 884.22 161.17 883.09 155.6 883.09 155.6 878.94"/>
      <polygon points="168.74 881.7 165.2 872.78 163.26 872.78 163.26 884.22 164.54 884.22 164.54 874.59 168.46 884.22 168.9 884.22 172.69 874.59 172.69 884.22 174.08 884.22 174.08 872.78 172.16 872.78 168.74 881.7"/>
      <path d="M204.12,899.93a2.35,2.35,0,0,0,1.73-2.42v-.07c0-2.25-1.56-3-3.68-3h-3.45v11.45h3.93c2.29,0,3.76-1,3.76-3.2v-.07C206.41,901.17,205.78,900.33,204.12,899.93Zm-4-4.36h2c1.6,0,2.36.53,2.36,1.83v.06c0,1.41-.64,2-2.32,2h-2.08Zm5,7.14c0,1.39-.77,2.13-2.44,2.13h-2.52v-4.27h2.33c1.84,0,2.63.67,2.63,2.08Z" transform="translate(-21.77 -21.7)"/>
      <path d="M211.59,894.48l-3.94,11.45H209l1.11-3.3h4.72l1.12,3.3h1.38l-3.88-11.45Zm-1.14,7,2-5.89,2,5.89Z" transform="translate(-21.77 -21.7)"/>
      <path d="M226.74,897.73v-.06c0-2.29-1.8-3.19-4-3.19H219.3v11.45h1.39v-5h1.76l3.41,5h1.56l-3.51-5.08A3.07,3.07,0,0,0,226.74,897.73Zm-6.05,2.12V895.6h2.15c1.55,0,2.51.52,2.51,2.07v.06c0,1.41-.88,2.12-2.51,2.12Z" transform="translate(-21.77 -21.7)"/>
      <path d="M237.75,901.72c1.41-1.38,2.31-2.76,2.31-4.16a3.12,3.12,0,0,0-3.46-3.22,3.59,3.59,0,0,0-3.72,3.66h1.3c.23-1.79,1.09-2.54,2.42-2.54a1.88,1.88,0,0,1,2.05,2,4.89,4.89,0,0,1-1.65,3.31l-4.55,4.79v.32h7.67v-1.14H234.6Z" transform="translate(-21.77 -21.7)"/>
      <path d="M246.41,894.34c-2.81,0-4.52,2.18-4.52,5.55v.64c0,3.33,1.81,5.54,4.55,5.54s4.43-2.24,4.43-5.57v-.64C250.87,896.6,249.22,894.34,246.41,894.34Zm3.05,6.15c0,2.89-1,4.43-3,4.43s-3.12-1.5-3.12-4.4v-.64c0-2.82,1.15-4.42,3.09-4.42s3.05,1.73,3.05,4.39Z" transform="translate(-21.77 -21.7)"/>
      <path d="M257.43,901.72c1.41-1.38,2.31-2.76,2.31-4.16a3.12,3.12,0,0,0-3.46-3.22,3.59,3.59,0,0,0-3.72,3.66h1.3c.22-1.79,1.09-2.54,2.42-2.54a1.88,1.88,0,0,1,2.05,2,4.89,4.89,0,0,1-1.65,3.31l-4.55,4.79v.32h7.67v-1.14h-5.52Z" transform="translate(-21.77 -21.7)"/>
      <path d="M266.29,901.72c1.41-1.38,2.31-2.76,2.31-4.16a3.12,3.12,0,0,0-3.46-3.22,3.57,3.57,0,0,0-3.71,3.66h1.29c.23-1.79,1.09-2.54,2.42-2.54a1.88,1.88,0,0,1,2.05,2,4.89,4.89,0,0,1-1.65,3.31L261,905.61v.32h7.66v-1.14h-5.52Z" transform="translate(-21.77 -21.7)"/>
      <path d="M28,682.46v-.1a3.61,3.61,0,0,0-4-3.86H21.91v7.86H24A3.65,3.65,0,0,0,28,682.46Zm-5.11,3.12v-6.31h1.07A2.75,2.75,0,0,1,27,682.36v.08a2.8,2.8,0,0,1-3,3.14Z" transform="translate(-21.77 -21.7)"/>
      <path d="M30.19,684.09h3.24l.77,2.27h.95l-2.66-7.86H31.23l-2.7,7.86h.9Zm1.63-4.8,1.36,4.05H30.45Z" transform="translate(-21.77 -21.7)"/>
      <polygon points="15.68 657.91 19.65 664.66 20.75 664.66 20.75 656.79 19.84 656.79 19.84 663.29 16.01 656.79 14.77 656.79 14.77 664.66 15.68 664.66 15.68 657.91"/>
      <path d="M50.18,686.46c2,0,3-1.18,3-3.09V678.5h-1v4.74c0,1.92-.75,2.43-2,2.43s-1.89-.64-1.89-2.29V678.5h-1v5C47.35,685.4,48.37,686.46,50.18,686.46Z" transform="translate(-21.77 -21.7)"/>
      <polygon points="37.1 658.03 39.79 664.66 40.09 664.66 42.7 658.03 42.7 664.66 43.66 664.66 43.66 656.79 42.33 656.79 39.98 662.92 37.55 656.79 36.22 656.79 36.22 664.66 37.1 664.66 37.1 658.03"/>
      <polygon points="50.42 663.88 46.59 663.88 46.59 661.03 49.52 661.03 49.52 660.25 46.59 660.25 46.59 657.57 50.22 657.57 50.22 656.79 45.63 656.79 45.63 664.66 50.42 664.66 50.42 663.88"/>
      <path d="M78.89,684.14c0-1.49-.93-2-2.68-2.29-1.6-.24-1.89-.64-1.89-1.41s.56-1.27,1.64-1.27,1.66.4,1.85,1.39h.86A2.4,2.4,0,0,0,76,678.4a2.28,2.28,0,0,0-2.53,2.13c0,1.4,1,1.91,2.63,2.17,1.49.24,1.9.61,1.9,1.51a1.6,1.6,0,0,1-1.79,1.48c-1.59,0-2-.79-2.08-1.73h-.93c.15,1.35.91,2.5,3,2.5A2.48,2.48,0,0,0,78.89,684.14Z" transform="translate(-21.77 -21.7)"/>
      <polygon points="63.54 663.88 59.71 663.88 59.71 661.03 62.64 661.03 62.64 660.25 59.71 660.25 59.71 657.57 63.34 657.57 63.34 656.79 58.76 656.79 58.76 664.66 63.54 664.66 63.54 663.88"/>
      <path d="M90,685.68c-1.69,0-2.7-1.21-2.7-3.21v-.09c0-2,1.08-3.25,2.71-3.25A2,2,0,0,1,92.2,681h.94A2.91,2.91,0,0,0,90,678.37a3.74,3.74,0,0,0-3.69,4v.09c0,2.42,1.39,4,3.67,4a3,3,0,0,0,3.29-2.71h-.89A2.18,2.18,0,0,1,90,685.68Z" transform="translate(-21.77 -21.7)"/>
      <path d="M97.43,686.46c2,0,3-1.18,3-3.09V678.5h-1v4.74c0,1.92-.75,2.43-2,2.43s-1.89-.64-1.89-2.29V678.5h-1v5A2.63,2.63,0,0,0,97.43,686.46Z" transform="translate(-21.77 -21.7)"/>
      <polygon points="1.01 702.15 3.71 708.77 4 708.77 6.61 702.15 6.61 708.77 7.57 708.77 7.57 700.91 6.25 700.91 3.89 707.03 1.46 700.91 0.13 700.91 0.13 708.77 1.01 708.77 1.01 702.15"/>
      <polygon points="14.13 701.69 14.13 700.91 9.55 700.91 9.55 708.77 14.33 708.77 14.33 707.99 10.5 707.99 10.5 705.14 13.43 705.14 13.43 704.36 10.5 704.36 10.5 701.69 14.13 701.69"/>
      <path d="M39.87,723.28c1.09,0,1.66.41,1.85,1.4h.86a2.39,2.39,0,0,0-2.71-2.17,2.29,2.29,0,0,0-2.53,2.14c0,1.39,1,1.91,2.63,2.16s1.91.62,1.91,1.51a1.61,1.61,0,0,1-1.8,1.49c-1.58,0-2-.8-2.08-1.73h-.92c.14,1.34.9,2.5,3,2.5a2.48,2.48,0,0,0,2.72-2.33c0-1.48-.92-2-2.67-2.28s-1.9-.64-1.9-1.41S38.79,723.28,39.87,723.28Z" transform="translate(-21.77 -21.7)"/>
      <polygon points="24.01 708.77 24.97 708.77 24.97 701.69 27.26 701.69 27.26 700.91 21.72 700.91 21.72 701.69 24.01 701.69 24.01 708.77"/>
      <path d="M49.56,726.51v.08a3.85,3.85,0,0,0,3.9,4,3.8,3.8,0,0,0,3.82-4v-.09a3.78,3.78,0,0,0-3.84-4A3.82,3.82,0,0,0,49.56,726.51Zm3.88-3.23a2.89,2.89,0,0,1,2.85,3.19v.09c0,1.9-1.08,3.22-2.83,3.22a3,3,0,0,1-2.91-3.2v-.08C50.55,724.62,51.61,723.28,53.44,723.28Z" transform="translate(-21.77 -21.7)"/>
      <polygon points="5.71 745 0.18 745 0.18 745.78 2.46 745.78 2.46 752.87 3.42 752.87 3.42 745.78 5.71 745.78 5.71 745"/>
      <path d="M33.9,768.94v0c0-1.58-1.24-2.19-2.75-2.19H28.79v7.86h.95v-3.42H31l2.35,3.42h1.06L32,771.08A2.1,2.1,0,0,0,33.9,768.94Zm-1,0c0,1-.6,1.45-1.72,1.45H29.74v-2.91h1.48c1.06,0,1.72.35,1.72,1.42Z" transform="translate(-21.77 -21.7)"/>
      <path d="M37.81,766.71l-2.71,7.86H36l.76-2.26H40l.77,2.26h.94l-2.66-7.86ZM37,771.55l1.37-4,1.36,4Z" transform="translate(-21.77 -21.7)"/>
      <path d="M44.86,772.39c0,1.06-.5,1.5-1.28,1.5a2.4,2.4,0,0,1-1-.22v.79a2.18,2.18,0,0,0,1.1.21,2,2,0,0,0,2.17-2.23v-5.73h-1Z" transform="translate(-21.77 -21.7)"/>
      <path d="M49.68,766.71,47,774.57h.9l.76-2.26h3.25l.77,2.26h.94l-2.66-7.86Zm-.79,4.84,1.37-4,1.36,4Z" transform="translate(-21.77 -21.7)"/>
      <polygon points="39.19 745 38.28 745 38.28 751.5 34.45 745 33.21 745 33.21 752.87 34.12 752.87 34.12 746.12 38.09 752.87 39.19 752.87 39.19 745"/>
      <path d="M64.69,772.39c0,1.06-.5,1.5-1.28,1.5a2.4,2.4,0,0,1-1-.22v.79a2.21,2.21,0,0,0,1.1.21,2,2,0,0,0,2.18-2.23v-5.73h-1Z" transform="translate(-21.77 -21.7)"/>
      <polygon points="50.38 745.78 50.38 745 45.79 745 45.79 752.87 50.58 752.87 50.58 752.09 46.75 752.09 46.75 749.24 49.68 749.24 49.68 748.46 46.75 748.46 46.75 745.78 50.38 745.78"/>
      <polygon points="4.95 796.19 1.12 796.19 1.12 793.34 4.05 793.34 4.05 792.56 1.12 792.56 1.12 789.88 4.75 789.88 4.75 789.1 0.17 789.1 0.17 796.97 4.95 796.97 4.95 796.19"/>
      <polygon points="12.87 796.97 13.83 796.97 13.83 789.1 12.51 789.1 10.15 795.23 7.72 789.1 6.39 789.1 6.39 796.97 7.27 796.97 7.27 790.35 9.97 796.97 10.26 796.97 12.87 790.35 12.87 796.97"/>
      <path d="M44.9,814.68a3.86,3.86,0,1,0-7.71,0v.09a3.86,3.86,0,1,0,7.71,0Zm-1,.08c0,1.9-1.08,3.22-2.83,3.22a3,3,0,0,1-2.9-3.2v-.09c0-1.87,1.06-3.21,2.88-3.21a2.88,2.88,0,0,1,2.85,3.19Z" transform="translate(-21.77 -21.7)"/>
      <path d="M52.18,816.07A2.17,2.17,0,0,1,49.81,818c-1.7,0-2.71-1.21-2.71-3.21v-.09c0-2,1.09-3.24,2.72-3.24a2,2,0,0,1,2.23,1.81h1a2.91,2.91,0,0,0-3.19-2.57,3.74,3.74,0,0,0-3.7,4v.09c0,2.42,1.4,4,3.68,4a3,3,0,0,0,3.28-2.7Z" transform="translate(-21.77 -21.7)"/>
      <rect x="32.81" y="789.1" width="0.96" height="7.87"/>
      <path d="M60.28,810.81h-1v5.69c0,1-.49,1.49-1.27,1.49a2.45,2.45,0,0,1-1-.22v.79a2.24,2.24,0,0,0,1.1.21,2,2,0,0,0,2.18-2.23Z" transform="translate(-21.77 -21.7)"/>
      <polygon points="45.01 789.88 45.01 789.1 40.42 789.1 40.42 796.97 45.21 796.97 45.21 796.19 41.38 796.19 41.38 793.34 44.31 793.34 44.31 792.56 41.38 792.56 41.38 789.88 45.01 789.88"/>
      <rect x="0.14" y="833.15" width="0.96" height="7.87"/>
      <polygon points="8.21 839.65 4.38 833.15 3.14 833.15 3.14 841.02 4.05 841.02 4.05 834.27 8.02 841.02 9.12 841.02 9.12 833.15 8.21 833.15 8.21 839.65"/>
      <polygon points="12.72 841.02 13.67 841.02 13.67 833.93 15.96 833.93 15.96 833.15 10.43 833.15 10.43 833.93 12.72 833.93 12.72 841.02"/>
      <polygon points="18.23 837.39 21.15 837.39 21.15 836.61 18.23 836.61 18.23 833.93 21.86 833.93 21.86 833.15 17.27 833.15 17.27 841.02 22.06 841.02 22.06 840.24 18.23 840.24 18.23 837.39"/>
      <polygon points="23.5 841.02 24.41 841.02 24.41 834.27 28.38 841.02 29.48 841.02 29.48 833.15 28.57 833.15 28.57 839.65 24.74 833.15 23.5 833.15 23.5 841.02"/>
      <polygon points="36.49 840.2 32.22 840.2 36.55 833.29 36.55 833.15 31.17 833.15 31.17 833.93 35.23 833.93 30.78 840.86 30.78 841.02 36.49 841.02 36.49 840.2"/>
      <rect x="38.06" y="833.15" width="0.96" height="7.87"/>
      <polygon points="42.67 841.02 43.63 841.02 43.63 833.93 45.91 833.93 45.91 833.15 40.38 833.15 40.38 833.93 42.67 833.93 42.67 841.02"/>
      <polygon points="48.18 837.39 51.11 837.39 51.11 836.61 48.18 836.61 48.18 833.93 51.81 833.93 51.81 833.15 47.22 833.15 47.22 841.02 52.01 841.02 52.01 840.24 48.18 840.24 48.18 837.39"/>
      <polygon points="58.31 833.15 52.78 833.15 52.78 833.93 55.07 833.93 55.07 841.02 56.02 841.02 56.02 833.93 58.31 833.93 58.31 833.15"/>
      <polygon points="91.62 703.72 91.04 703.72 91.04 707.86 88.6 703.72 87.81 703.72 87.81 708.73 88.39 708.73 88.39 704.44 90.92 708.73 91.62 708.73 91.62 703.72"/>
      <path d="M115.33,729h2.06l.49,1.44h.61l-1.7-5H116l-1.72,5h.57Zm1-3.06.87,2.58H115.5Z" transform="translate(-21.77 -21.7)"/>
      <path d="M120,728.39h.82c.95,0,1.75-.41,1.75-1.47v0c0-1-.79-1.47-1.75-1.47h-1.42v5h.6Zm0-2.47h.86c.68,0,1.1.26,1.1,1v0c0,.64-.39,1-1.1,1H120Z" transform="translate(-21.77 -21.7)"/>
      <path d="M125.67,730.5A2.42,2.42,0,0,0,128.1,728v-.06a2.46,2.46,0,1,0-4.91,0V728A2.44,2.44,0,0,0,125.67,730.5Zm-1.85-2.6a1.84,1.84,0,1,1,3.65,0v.06a1.82,1.82,0,0,1-1.8,2,1.88,1.88,0,0,1-1.85-2Z" transform="translate(-21.77 -21.7)"/>
      <polygon points="110.24 708.23 107.95 708.23 107.95 703.72 107.34 703.72 107.34 708.73 110.24 708.73 110.24 708.23"/>
      <path d="M134.58,729.07v-3.65H134v3.63c0,.67-.32,1-.81,1a1.49,1.49,0,0,1-.67-.14v.5a1.38,1.38,0,0,0,.7.14A1.29,1.29,0,0,0,134.58,729.07Z" transform="translate(-21.77 -21.7)"/>
      <path d="M137.55,730.5a1.74,1.74,0,0,0,1.9-2v-3.11h-.61v3c0,1.23-.48,1.55-1.27,1.55s-1.21-.41-1.21-1.46v-3.11h-.61v3.18A1.68,1.68,0,0,0,137.55,730.5Z" transform="translate(-21.77 -21.7)"/>
      <path d="M116.77,772V772a2.3,2.3,0,0,0-2.54-2.46h-1.32v5h1.31A2.32,2.32,0,0,0,116.77,772Zm-3.25,2v-4h.68a1.75,1.75,0,0,1,1.94,2v0a1.78,1.78,0,0,1-1.93,2Z" transform="translate(-21.77 -21.7)"/>
      <path d="M122.45,772v0a2.46,2.46,0,1,0-4.91,0v0a2.46,2.46,0,1,0,4.91,0Zm-4.28,0V772a1.82,1.82,0,0,1,1.83-2,1.84,1.84,0,0,1,1.82,2v0a1.83,1.83,0,0,1-1.8,2.06A1.88,1.88,0,0,1,118.17,772Z" transform="translate(-21.77 -21.7)"/>
      <polygon points="104.88 752.79 104.88 747.78 104.31 747.78 103.15 748.63 103.15 749.19 104.27 748.39 104.27 752.79 104.88 752.79"/>
      <path d="M127.9,772.14c0,1.45.79,2.42,2,2.42s1.94-1,1.94-2.44v-.28c0-1.43-.72-2.41-1.95-2.41s-2,1-2,2.43Zm.62-.29c0-1.23.5-1.93,1.35-1.93s1.34.75,1.34,1.92v.28c0,1.26-.45,1.94-1.33,1.94s-1.36-.66-1.36-1.93Z" transform="translate(-21.77 -21.7)"/>
      <polygon points="113.52 748.58 115.24 752.79 115.43 752.79 117.08 748.58 117.08 752.79 117.69 752.79 117.69 747.78 116.85 747.78 115.36 751.69 113.81 747.78 112.96 747.78 112.96 752.79 113.52 752.79 113.52 748.58"/>
      <rect x="118.99" y="747.79" width="0.61" height="5.01"/>
      <polygon points="121.47 748.5 124 752.79 124.7 752.79 124.7 747.78 124.12 747.78 124.12 751.92 121.68 747.78 120.89 747.78 120.89 752.79 121.47 752.79 121.47 748.5"/>
      <polygon points="161.16 753.1 161.16 748.09 160.6 748.09 159.44 748.93 159.44 749.5 160.56 748.69 160.56 753.1 161.16 753.1"/>
      <path d="M185.77,772a1.06,1.06,0,0,1,1.06,1.17,1.08,1.08,0,0,1-1.1,1.22,1,1,0,0,1-1.08-.93h-.58a1.48,1.48,0,0,0,1.66,1.42,1.64,1.64,0,0,0,1.72-1.71,1.53,1.53,0,0,0-1.56-1.66,1.48,1.48,0,0,0-1,.35v-1.53h2.31v-.53h-2.81v2.69h.22A1.44,1.44,0,0,1,185.77,772Z" transform="translate(-21.77 -21.7)"/>
      <polygon points="169.15 748.88 170.87 753.1 171.06 753.1 172.72 748.88 172.72 753.1 173.33 753.1 173.33 748.09 172.49 748.09 170.99 751.99 169.44 748.09 168.59 748.09 168.59 753.1 169.15 753.1 169.15 748.88"/>
      <rect x="174.62" y="748.09" width="0.61" height="5.01"/>
      <polygon points="176.52 753.1 177.1 753.1 177.1 748.81 179.63 753.1 180.33 753.1 180.33 748.09 179.75 748.09 179.75 752.23 177.31 748.09 176.52 748.09 176.52 753.1"/>
      <path d="M239.3,774.33a1.09,1.09,0,0,1-1.21-1.05h-.56a1.6,1.6,0,0,0,1.75,1.54c1,0,1.78-.54,1.78-1.45a1.2,1.2,0,0,0-1-1.26,1.15,1.15,0,0,0,.79-1.1,1.38,1.38,0,0,0-1.51-1.32,1.55,1.55,0,0,0-1.64,1.44h.53a1,1,0,0,1,1.11-.94.81.81,0,0,1,.91.84c0,.54-.29.85-.94.85H239v.51h.38c.71,0,1.06.33,1.06,1S240.08,774.33,239.3,774.33Z" transform="translate(-21.77 -21.7)"/>
      <path d="M243.89,774.82c1.23,0,1.94-1,1.94-2.43v-.28c0-1.43-.72-2.42-2-2.42s-2,.95-2,2.43v.28C241.9,773.86,242.69,774.82,243.89,774.82Zm-1.37-2.71c0-1.23.51-1.93,1.36-1.93s1.33.76,1.33,1.92v.28c0,1.27-.44,1.94-1.32,1.94s-1.37-.66-1.37-1.93Z" transform="translate(-21.77 -21.7)"/>
      <polygon points="231.09 753.06 231.7 753.06 231.7 748.05 230.86 748.05 229.36 751.95 227.81 748.05 226.97 748.05 226.97 753.06 227.53 753.06 227.53 748.84 229.24 753.06 229.43 753.06 231.09 748.84 231.09 753.06"/>
      <rect x="232.99" y="748.05" width="0.61" height="5.01"/>
      <polygon points="238.13 752.19 235.69 748.05 234.9 748.05 234.9 753.06 235.48 753.06 235.48 748.76 238.01 753.06 238.71 753.06 238.71 748.05 238.13 748.05 238.13 752.19"/>
      <path d="M101.61,816a1,1,0,0,0,.76-1.06v0c0-1-.68-1.29-1.61-1.29H99.25v5H101c1,0,1.64-.45,1.64-1.4v0A1.09,1.09,0,0,0,101.61,816Zm-1.76-1.91h.89c.7,0,1,.23,1,.8v0c0,.61-.28.88-1,.88h-.91Zm2.17,3.13c0,.6-.34.93-1.07.93h-1.1v-1.87h1c.8,0,1.15.29,1.15.91Z" transform="translate(-21.77 -21.7)"/>
      <polygon points="84.88 796.43 82.45 796.43 82.45 794.62 84.31 794.62 84.31 794.12 82.45 794.12 82.45 792.42 84.76 792.42 84.76 791.92 81.84 791.92 81.84 796.93 84.88 796.93 84.88 796.43"/>
      <path d="M109.19,818.21c-1,0-1.25-.51-1.33-1.1h-.59a1.68,1.68,0,0,0,1.92,1.59,1.57,1.57,0,0,0,1.72-1.48c0-1-.58-1.28-1.7-1.46s-1.2-.4-1.2-.89.36-.82,1-.82,1.06.26,1.18.89h.54a1.52,1.52,0,0,0-1.72-1.38,1.46,1.46,0,0,0-1.61,1.36c0,.89.62,1.22,1.68,1.38s1.21.39,1.21,1A1,1,0,0,1,109.19,818.21Z" transform="translate(-21.77 -21.7)"/>
      <polygon points="89.6 797.6 89.98 797.79 90.84 796.33 90.27 796.06 89.6 797.6"/>
      <path d="M118.69,815v0c0-1-.68-1.29-1.61-1.29h-1.5v5h1.71c1,0,1.65-.45,1.65-1.4v0a1.1,1.1,0,0,0-1-1.2A1,1,0,0,0,118.69,815Zm-.35,2.25v0c0,.6-.33.93-1.06.93h-1.11v-1.87h1C118,816.29,118.34,816.58,118.34,817.2Zm-.24-2.27c0,.61-.28.88-1,.88h-.91V814.1h.9c.7,0,1,.23,1,.8Z" transform="translate(-21.77 -21.7)"/>
      <path d="M122.13,818.7a2.42,2.42,0,0,0,2.43-2.55v-.06a2.46,2.46,0,1,0-4.91,0v0A2.44,2.44,0,0,0,122.13,818.7Zm-1.85-2.6a1.84,1.84,0,1,1,3.65,0v.06a1.82,1.82,0,0,1-1.8,2.05,1.88,1.88,0,0,1-1.85-2Z" transform="translate(-21.77 -21.7)"/>
      <polygon points="106.7 796.43 104.41 796.43 104.41 791.92 103.8 791.92 103.8 796.93 106.7 796.93 106.7 796.43"/>
      <polygon points="107.35 797.6 107.72 797.79 108.58 796.33 108.02 796.06 107.35 797.6"/>
      <path d="M136.67,817.22c0-1-.59-1.28-1.7-1.46s-1.21-.4-1.21-.89.36-.82,1.05-.82,1.05.26,1.17.89h.55a1.52,1.52,0,0,0-1.72-1.38,1.46,1.46,0,0,0-1.62,1.36c0,.89.63,1.22,1.68,1.38s1.21.39,1.21,1a1,1,0,0,1-1.14,1c-1,0-1.25-.51-1.33-1.1H133a1.67,1.67,0,0,0,1.91,1.59A1.58,1.58,0,0,0,136.67,817.22Z" transform="translate(-21.77 -21.7)"/>
      <polygon points="115.34 792.42 116.8 792.42 116.8 796.93 117.41 796.93 117.41 792.42 118.86 792.42 118.86 791.92 115.34 791.92 115.34 792.42"/>
      <path d="M145,818.63l-1.53-2.22a1.35,1.35,0,0,0,1.24-1.36v0c0-1-.79-1.39-1.75-1.39h-1.51v5h.61v-2.17h.77l1.49,2.17ZM142.07,816v-1.85H143c.68,0,1.1.22,1.1.9v0c0,.61-.39.92-1.1.92Z" transform="translate(-21.77 -21.7)"/>
      <path d="M146.05,818.63l.49-1.44h2.06l.49,1.44h.61l-1.7-5h-.8l-1.72,5Zm1.52-4.5.87,2.58h-1.73Z" transform="translate(-21.77 -21.7)"/>
      <path d="M152.12,815.76c-1-.15-1.21-.4-1.21-.89s.36-.82,1.05-.82,1,.26,1.17.89h.55a1.52,1.52,0,0,0-1.72-1.38,1.46,1.46,0,0,0-1.62,1.36c0,.89.63,1.22,1.68,1.38s1.21.39,1.21,1a1,1,0,0,1-1.14,1c-1,0-1.25-.51-1.33-1.1h-.58a1.67,1.67,0,0,0,1.91,1.59,1.58,1.58,0,0,0,1.73-1.48C153.82,816.27,153.23,815.94,152.12,815.76Z" transform="translate(-21.77 -21.7)"/>
      <polygon points="133.95 796.93 134.56 796.93 134.56 792.42 136.01 792.42 136.01 791.92 132.49 791.92 132.49 792.42 133.95 792.42 133.95 796.93"/>
      <polygon points="154.6 791.92 151.08 791.92 151.08 792.42 152.53 792.42 152.53 796.93 153.15 796.93 153.15 792.42 154.6 792.42 154.6 791.92"/>
      <path d="M179,818.7a1.74,1.74,0,0,0,1.9-2v-3.1h-.61v3c0,1.23-.48,1.55-1.28,1.55s-1.2-.4-1.2-1.45v-3.11h-.61v3.18A1.67,1.67,0,0,0,179,818.7Z" transform="translate(-21.77 -21.7)"/>
      <path d="M186.42,816.48v-.37h-2.06v.5h1.47a1.47,1.47,0,0,1-1.58,1.6c-1.18,0-1.79-.82-1.79-2.06v0c0-1.23.66-2.07,1.8-2.07a1.28,1.28,0,0,1,1.42,1.11h.61a1.85,1.85,0,0,0-2-1.59,2.4,2.4,0,0,0-2.42,2.56v0a2.33,2.33,0,0,0,2.42,2.54A2,2,0,0,0,186.42,816.48Z" transform="translate(-21.77 -21.7)"/>
      <path d="M186.78,818.63h.58l.48-1.44h2.07l.49,1.44h.6l-1.7-5h-.79Zm3-1.92H188l.87-2.58Z" transform="translate(-21.77 -21.7)"/>
      <polygon points="169.8 797.6 170.18 797.79 171.04 796.33 170.48 796.06 169.8 797.6"/>
      <path d="M199.43,816.73v-3.1h-.61v3c0,1.23-.47,1.55-1.27,1.55s-1.2-.4-1.2-1.45v-3.11h-.61v3.18a1.67,1.67,0,0,0,1.8,1.89A1.74,1.74,0,0,0,199.43,816.73Z" transform="translate(-21.77 -21.7)"/>
      <path d="M200.52,814.92c0,.89.63,1.22,1.68,1.38s1.21.39,1.21,1a1,1,0,0,1-1.14,1c-1,0-1.25-.51-1.33-1.1h-.58a1.67,1.67,0,0,0,1.91,1.59,1.58,1.58,0,0,0,1.73-1.48c0-1-.59-1.28-1.7-1.46s-1.21-.4-1.21-.89.36-.82,1-.82,1.05.26,1.17.89h.55a1.52,1.52,0,0,0-1.72-1.38A1.46,1.46,0,0,0,200.52,814.92Z" transform="translate(-21.77 -21.7)"/>
      <path d="M208.7,818.63l-1.69-5h-.8l-1.72,5h.57l.48-1.44h2.07l.49,1.44Zm-3-1.92.87-2.58.87,2.58Z" transform="translate(-21.77 -21.7)"/>
      <polygon points="188.38 792.71 190.09 796.93 190.28 796.93 191.94 792.71 191.94 796.93 192.55 796.93 192.55 791.92 191.71 791.92 190.21 795.82 188.66 791.92 187.81 791.92 187.81 796.93 188.38 796.93 188.38 792.71"/>
      <polygon points="194.42 791.92 193.81 791.92 193.81 796.93 196.71 796.93 196.71 796.43 194.42 796.43 194.42 791.92"/>
      <path d="M221,817.28v-3.65h-.61v3.62c0,.67-.31,1-.81,1a1.47,1.47,0,0,1-.66-.14v.5a1.38,1.38,0,0,0,.7.14A1.28,1.28,0,0,0,221,817.28Z" transform="translate(-21.77 -21.7)"/>
      <polygon points="203.54 796.43 201.1 796.43 201.1 794.62 202.96 794.62 202.96 794.12 201.1 794.12 201.1 792.42 203.41 792.42 203.41 791.92 200.49 791.92 200.49 796.93 203.54 796.93 203.54 796.43"/>
      <polygon points="207.68 796.06 205.25 791.92 204.45 791.92 204.45 796.93 205.03 796.93 205.03 792.64 207.56 796.93 208.26 796.93 208.26 791.92 207.68 791.92 207.68 796.06"/>
      <path d="M236,816.15v-.06a2.4,2.4,0,0,0-2.44-2.53,2.43,2.43,0,0,0-2.47,2.55v0a2.45,2.45,0,0,0,2.48,2.54A2.42,2.42,0,0,0,236,816.15Zm-4.28,0v0a1.84,1.84,0,1,1,3.65,0v.06a1.82,1.82,0,0,1-1.8,2.05A1.88,1.88,0,0,1,231.67,816.15Z" transform="translate(-21.77 -21.7)"/>
      <path d="M238.54,815.76c-1-.15-1.2-.4-1.2-.89s.35-.82,1-.82,1.06.26,1.18.89h.54a1.52,1.52,0,0,0-1.72-1.38,1.45,1.45,0,0,0-1.61,1.36c0,.89.62,1.22,1.67,1.38s1.21.39,1.21,1a1,1,0,0,1-1.14,1c-1,0-1.24-.51-1.32-1.1h-.59a1.68,1.68,0,0,0,1.91,1.59,1.58,1.58,0,0,0,1.73-1.48C240.24,816.27,239.65,815.94,238.54,815.76Z" transform="translate(-21.77 -21.7)"/>
      <polygon points="220.37 796.93 220.98 796.93 220.98 792.42 222.44 792.42 222.44 791.92 218.91 791.92 218.91 792.42 220.37 792.42 220.37 796.93"/>
      <polygon points="242.5 796.41 239.79 796.41 242.55 792.01 242.55 791.92 239.12 791.92 239.12 792.42 241.71 792.42 238.87 796.83 238.87 796.93 242.5 796.93 242.5 796.41"/>
      <path d="M266.58,813.63l-1.72,5h.57l.49-1.44H268l.49,1.44h.61l-1.7-5Zm-.5,3.08.87-2.58.87,2.58Z" transform="translate(-21.77 -21.7)"/>
      <polygon points="249.41 796.34 247.91 791.92 247.31 791.92 249.01 796.93 249.74 796.93 251.47 791.92 250.9 791.92 249.41 796.34"/>
      <rect x="252.35" y="791.92" width="0.61" height="5.01"/>
      <path d="M277.66,815.76c-1-.15-1.2-.4-1.2-.89s.36-.82,1-.82,1.06.26,1.18.89h.54a1.52,1.52,0,0,0-1.72-1.38,1.46,1.46,0,0,0-1.61,1.36c0,.89.62,1.22,1.67,1.38s1.22.39,1.22,1a1,1,0,0,1-1.15,1c-1,0-1.24-.51-1.32-1.1h-.59a1.68,1.68,0,0,0,1.91,1.59,1.58,1.58,0,0,0,1.73-1.48C279.36,816.27,278.78,815.94,277.66,815.76Z" transform="translate(-21.77 -21.7)"/>
      <polygon points="261.56 791.92 258.04 791.92 258.04 792.42 259.49 792.42 259.49 796.93 260.1 796.93 260.1 792.42 261.56 792.42 261.56 791.92"/>
      <polygon points="261.17 797.6 261.55 797.79 262.41 796.33 261.85 796.06 261.17 797.6"/>
      <polygon points="265.99 791.92 265.38 791.92 265.38 796.93 268.28 796.93 268.28 796.43 265.99 796.43 265.99 791.92"/>
      <path d="M292,817.25c0,.67-.32,1-.82,1a1.47,1.47,0,0,1-.66-.14v.5a1.38,1.38,0,0,0,.7.14,1.29,1.29,0,0,0,1.39-1.42v-3.65H292Z" transform="translate(-21.77 -21.7)"/>
      <path d="M296.88,816.64c0,1.23-.48,1.55-1.28,1.55s-1.2-.4-1.2-1.45v-3.11h-.61v3.18a1.67,1.67,0,0,0,1.8,1.89,1.74,1.74,0,0,0,1.9-2v-3.1h-.61Z" transform="translate(-21.77 -21.7)"/>
      <path d="M301.06,816a1,1,0,0,0,.76-1.06v0c0-1-.68-1.29-1.61-1.29H298.7v5h1.72c1,0,1.65-.45,1.65-1.4v0A1.1,1.1,0,0,0,301.06,816Zm-1.76-1.91h.9c.7,0,1,.23,1,.8v0c0,.61-.28.88-1,.88h-.91Zm2.17,3.13c0,.6-.34.93-1.06.93H299.3v-1.87h1c.81,0,1.15.29,1.15.91Z" transform="translate(-21.77 -21.7)"/>
      <path d="M305.24,813.56a2.43,2.43,0,0,0-2.46,2.55v0a2.46,2.46,0,1,0,4.91,0v-.06A2.41,2.41,0,0,0,305.24,813.56Zm1.82,2.58a1.82,1.82,0,0,1-1.8,2.05,1.88,1.88,0,0,1-1.85-2v0a1.84,1.84,0,1,1,3.65,0Z" transform="translate(-21.77 -21.7)"/>
      <polygon points="289.33 795.82 287.78 791.92 286.93 791.92 286.93 796.93 287.49 796.93 287.49 792.71 289.21 796.93 289.4 796.93 291.06 792.71 291.06 796.93 291.67 796.93 291.67 791.92 290.83 791.92 289.33 795.82"/>
      <path d="M316.91,813.56a2.43,2.43,0,0,0-2.46,2.55v0a2.46,2.46,0,1,0,4.91,0v-.06A2.41,2.41,0,0,0,316.91,813.56Zm1.82,2.58a1.82,1.82,0,0,1-1.8,2.05,1.88,1.88,0,0,1-1.85-2v0a1.84,1.84,0,1,1,3.65,0Z" transform="translate(-21.77 -21.7)"/>
      <path d="M323.63,815.05v0c0-1-.8-1.39-1.76-1.39h-1.5v5H321v-2.17h.77l1.49,2.17h.68l-1.53-2.22A1.35,1.35,0,0,0,323.63,815.05ZM321,816v-1.85h.94c.68,0,1.1.22,1.1.9v0c0,.61-.39.92-1.1.92Z" transform="translate(-21.77 -21.7)"/>
      <path d="M326.11,813.63l-1.72,5H325l.48-1.44h2.07l.49,1.44h.6l-1.69-5Zm-.5,3.08.87-2.58.87,2.58Z" transform="translate(-21.77 -21.7)"/>
      <polygon points="328.53 791.53 329.28 790.64 328.87 790.64 328.27 791.05 327.68 790.64 327.25 790.64 328 791.53 328.53 791.53"/>
      <polygon points="326.65 792.42 329.23 792.42 326.4 796.83 326.4 796.93 330.03 796.93 330.03 796.41 327.31 796.41 330.07 792.01 330.07 791.92 326.65 791.92 326.65 792.42"/>
      <path d="M354.11,813.63l-1.72,5H353l.48-1.44h2.07l.49,1.44h.6l-1.69-5Zm-.5,3.08.87-2.58.87,2.58Z" transform="translate(-21.77 -21.7)"/>
      <polygon points="336.32 791.92 335.71 791.92 335.71 796.93 338.61 796.93 338.61 796.43 336.32 796.43 336.32 791.92"/>
      <path d="M362.34,817.25c0,.67-.31,1-.81,1a1.55,1.55,0,0,1-.67-.14v.5a1.44,1.44,0,0,0,.7.14,1.28,1.28,0,0,0,1.39-1.42v-3.65h-.61Z" transform="translate(-21.77 -21.7)"/>
      <polygon points="343.01 794.62 344.87 794.62 344.87 794.12 343.01 794.12 343.01 792.42 345.32 792.42 345.32 791.92 342.4 791.92 342.4 796.93 345.45 796.93 345.45 796.43 343.01 796.43 343.01 794.62"/>
      <polygon points="349.59 796.06 347.15 791.92 346.36 791.92 346.36 796.93 346.94 796.93 346.94 792.64 349.47 796.93 350.17 796.93 350.17 791.92 349.59 791.92 349.59 796.06"/>
      <path d="M374.31,817.25c0,.67-.31,1-.81,1a1.55,1.55,0,0,1-.67-.14v.5a1.44,1.44,0,0,0,.7.14,1.28,1.28,0,0,0,1.39-1.42v-3.65h-.61Z" transform="translate(-21.77 -21.7)"/>
      <polygon points="354.98 794.62 356.84 794.62 356.84 794.12 354.98 794.12 354.98 792.42 357.29 792.42 357.29 791.92 354.37 791.92 354.37 796.93 357.42 796.93 357.42 796.43 354.98 796.43 354.98 794.62"/>
      <polygon points="358.09 797.6 358.47 797.79 359.33 796.33 358.77 796.06 358.09 797.6"/>
      <path d="M385.71,815.76c-1-.15-1.2-.4-1.2-.89s.36-.82,1-.82,1.06.26,1.18.89h.55a1.53,1.53,0,0,0-1.73-1.38,1.46,1.46,0,0,0-1.61,1.36c0,.89.63,1.22,1.68,1.38s1.21.39,1.21,1a1,1,0,0,1-1.14,1c-1,0-1.25-.51-1.33-1.1h-.59a1.69,1.69,0,0,0,1.92,1.59,1.58,1.58,0,0,0,1.73-1.48C387.42,816.27,386.83,815.94,385.71,815.76Z" transform="translate(-21.77 -21.7)"/>
      <polygon points="369.08 795.82 367.54 791.92 366.69 791.92 366.69 796.93 367.25 796.93 367.25 792.71 368.97 796.93 369.15 796.93 370.81 792.71 370.81 796.93 371.42 796.93 371.42 791.92 370.58 791.92 369.08 795.82"/>
      <path d="M397.71,815.05v0c0-1-.8-1.39-1.75-1.39h-1.51v5h.61v-2.17h.77l1.49,2.17H398l-1.53-2.22A1.35,1.35,0,0,0,397.71,815.05Zm-2.65.92v-1.85H396c.68,0,1.1.22,1.1.9v0c0,.61-.39.92-1.1.92Z" transform="translate(-21.77 -21.7)"/>
      <polygon points="376.55 792.42 378 792.42 378 796.93 378.61 796.93 378.61 792.42 380.07 792.42 380.07 791.92 376.55 791.92 376.55 792.42"/>
      <path d="M423.84,815.76c-1-.15-1.21-.4-1.21-.89s.36-.82,1.05-.82,1.06.26,1.17.89h.55a1.52,1.52,0,0,0-1.72-1.38,1.45,1.45,0,0,0-1.61,1.36c0,.89.62,1.22,1.67,1.38s1.21.39,1.21,1a1,1,0,0,1-1.14,1c-1,0-1.25-.51-1.32-1.1h-.59a1.67,1.67,0,0,0,1.91,1.59,1.58,1.58,0,0,0,1.73-1.48C425.54,816.27,425,815.94,423.84,815.76Z" transform="translate(-21.77 -21.7)"/>
      <polygon points="404.21 792.42 405.67 792.42 405.67 796.93 406.28 796.93 406.28 792.42 407.74 792.42 407.74 791.92 404.21 791.92 404.21 792.42"/>
      <path d="M433.59,815.05v0c0-1-.79-1.39-1.75-1.39h-1.51v5h.61v-2.17h.77l1.5,2.17h.67l-1.53-2.22A1.34,1.34,0,0,0,433.59,815.05Zm-2.65.92v-1.85h.94c.68,0,1.1.22,1.1.9v0c0,.61-.38.92-1.1.92Z" transform="translate(-21.77 -21.7)"/>
      <path d="M436.07,813.63l-1.72,5h.58l.48-1.44h2.07l.49,1.44h.6l-1.7-5Zm-.49,3.08.87-2.58.86,2.58Z" transform="translate(-21.77 -21.7)"/>
      <polygon points="420.92 794.19 418.29 794.19 418.29 791.92 417.68 791.92 417.68 796.93 418.29 796.93 418.29 794.7 420.92 794.7 420.92 796.93 421.53 796.93 421.53 791.92 420.92 791.92 420.92 794.19"/>
      <path d="M465,816.64c0,1.23-.48,1.55-1.28,1.55s-1.2-.4-1.2-1.45v-3.11h-.61v3.18a1.67,1.67,0,0,0,1.8,1.89,1.74,1.74,0,0,0,1.9-2v-3.1H465Z" transform="translate(-21.77 -21.7)"/>
      <polygon points="444.76 792.42 447.35 792.42 444.51 796.83 444.51 796.93 448.15 796.93 448.15 796.41 445.43 796.41 448.19 792.01 448.19 791.92 444.76 791.92 444.76 792.42"/>
      <path d="M473.24,816A1,1,0,0,0,474,815v0c0-1-.68-1.29-1.62-1.29h-1.5v5h1.71c1,0,1.65-.45,1.65-1.4v0A1.09,1.09,0,0,0,473.24,816Zm-1.77-1.91h.9c.7,0,1,.23,1,.8v0c0,.61-.28.88-1,.88h-.91Zm2.18,3.13c0,.6-.34.93-1.07.93h-1.11v-1.87h1c.8,0,1.15.29,1.15.91Z" transform="translate(-21.77 -21.7)"/>
      <path d="M478.28,816.64c0,1.23-.48,1.55-1.28,1.55s-1.2-.4-1.2-1.45v-3.11h-.61v3.18a1.67,1.67,0,0,0,1.8,1.89,1.74,1.74,0,0,0,1.9-2v-3.1h-.61Z" transform="translate(-21.77 -21.7)"/>
      <path d="M481.57,813.63h-1.32v2.26h-.54v.47h.54v2.27h1.3a2.31,2.31,0,0,0,2.55-2.48v-.07A2.29,2.29,0,0,0,481.57,813.63Zm1.9,2.51a1.78,1.78,0,0,1-1.93,2h-.69v-1.78h1.45v-.47h-1.45v-1.77h.68a1.75,1.75,0,0,1,1.94,2Z" transform="translate(-21.77 -21.7)"/>
      <polygon points="463.96 794.62 465.82 794.62 465.82 794.12 463.96 794.12 463.96 792.42 466.27 792.42 466.27 791.92 463.35 791.92 463.35 796.93 466.4 796.93 466.4 796.43 463.96 796.43 463.96 794.62"/>
      <polygon points="470.54 796.06 468.1 791.92 467.31 791.92 467.31 796.93 467.89 796.93 467.89 792.64 470.42 796.93 471.12 796.93 471.12 791.92 470.54 791.92 470.54 796.06"/>
      <path d="M495.26,817.25c0,.67-.31,1-.81,1a1.52,1.52,0,0,1-.67-.14v.5a1.41,1.41,0,0,0,.7.14,1.28,1.28,0,0,0,1.39-1.42v-3.65h-.61Z" transform="translate(-21.77 -21.7)"/>
      <polygon points="475.93 796.43 475.93 794.62 477.79 794.62 477.79 794.12 475.93 794.12 475.93 792.42 478.24 792.42 478.24 791.92 475.32 791.92 475.32 796.93 478.37 796.93 478.37 796.43 475.93 796.43"/>
      <polygon points="274.56 748.89 274.56 749.46 275.68 748.65 275.68 753.06 276.29 753.06 276.29 748.05 275.72 748.05 274.56 748.89"/>
      <polygon points="280.21 750.83 282.85 750.83 282.85 753.06 283.46 753.06 283.46 748.05 282.85 748.05 282.85 750.32 280.21 750.32 280.21 748.05 279.61 748.05 279.61 753.06 280.21 753.06 280.21 750.83"/>
      <path d="M182.36,730.5a1.74,1.74,0,0,0,1.9-2v-3.11h-.61v3c0,1.23-.48,1.55-1.28,1.55s-1.2-.41-1.2-1.46v-3.11h-.61v3.18A1.68,1.68,0,0,0,182.36,730.5Z" transform="translate(-21.77 -21.7)"/>
      <polygon points="164.29 704.44 166.81 708.73 167.51 708.73 167.51 703.72 166.93 703.72 166.93 707.86 164.5 703.72 163.71 703.72 163.71 708.73 164.29 708.73 164.29 704.44"/>
      <path d="M192.3,730.5a1.74,1.74,0,0,0,1.9-2v-3.11h-.61v3c0,1.23-.48,1.55-1.28,1.55s-1.2-.41-1.2-1.46v-3.11h-.61v3.18A1.68,1.68,0,0,0,192.3,730.5Z" transform="translate(-21.77 -21.7)"/>
      <polygon points="174.67 708.73 175.28 708.73 175.28 704.22 176.74 704.22 176.74 703.72 173.22 703.72 173.22 704.22 174.67 704.22 174.67 708.73"/>
      <path d="M200,728.25h.77l1.49,2.18h.68l-1.53-2.22a1.35,1.35,0,0,0,1.24-1.36v0c0-1-.8-1.4-1.75-1.4h-1.51v5H200Zm0-2.33h.94c.68,0,1.1.22,1.1.9v0c0,.61-.39.92-1.1.92H200Z" transform="translate(-21.77 -21.7)"/>
      <path d="M204.41,729h2.07l.49,1.44h.6l-1.69-5h-.8l-1.72,5h.57Zm1-3.06.87,2.58h-1.74Z" transform="translate(-21.77 -21.7)"/>
    </g>
  </g>
</svg>
